<svg width="30" height="30" viewBox="0 0 30 30" fill="none" xmlns="http://www.w3.org/2000/svg">
<path d="M28.1429 3.28566H22.1429V0.999948C22.1429 0.842805 22.0143 0.714233 21.8571 0.714233H19.8571C19.7 0.714233 19.5714 0.842805 19.5714 0.999948V3.28566H10.4286V0.999948C10.4286 0.842805 10.3 0.714233 10.1429 0.714233H8.14286C7.98571 0.714233 7.85714 0.842805 7.85714 0.999948V3.28566H1.85714C1.225 3.28566 0.714285 3.79638 0.714285 4.42852V28.1428C0.714285 28.7749 1.225 29.2857 1.85714 29.2857H28.1429C28.775 29.2857 29.2857 28.7749 29.2857 28.1428V4.42852C29.2857 3.79638 28.775 3.28566 28.1429 3.28566ZM26.7143 26.7142H3.28571V13.1428H26.7143V26.7142ZM26.7143 10.7142H3.28571V5.85709H7.85714V7.57138C7.85714 7.72852 7.98571 7.85709 8.14286 7.85709H10.1429C10.3 7.85709 10.4286 7.72852 10.4286 7.57138V5.85709H19.5714V7.57138C19.5714 7.72852 19.7 7.85709 19.8571 7.85709H21.8571C22.0143 7.85709 22.1429 7.72852 22.1429 7.57138V5.85709H26.7143V10.7142Z" fill="#333333"/>
</svg>
